<svg width="24" height="25" viewBox="0 0 24 25" fill="none" xmlns="http://www.w3.org/2000/svg">
<path fill-rule="evenodd" clip-rule="evenodd" d="M22 12.4116C22 17.9346 17.523 22.4116 12 22.4116C6.477 22.4116 2 17.9346 2 12.4116C2 6.88862 6.477 2.41162 12 2.41162C17.523 2.41162 22 6.88862 22 12.4116ZM11 8.41162C11 8.67684 11.1054 8.93119 11.2929 9.11873C11.4804 9.30626 11.7348 9.41162 12 9.41162H12.008C12.2732 9.41162 12.5276 9.30626 12.7151 9.11873C12.9026 8.93119 13.008 8.67684 13.008 8.41162C13.008 8.1464 12.9026 7.89205 12.7151 7.70451C12.5276 7.51698 12.2732 7.41162 12.008 7.41162H12C11.7348 7.41162 11.4804 7.51698 11.2929 7.70451C11.1054 7.89205 11 8.1464 11 8.41162ZM12 17.4116C12.2652 17.4116 12.5196 17.3063 12.7071 17.1187C12.8946 16.9312 13 16.6768 13 16.4116V11.4116C13 11.1464 12.8946 10.8921 12.7071 10.7045C12.5196 10.517 12.2652 10.4116 12 10.4116C11.7348 10.4116 11.4804 10.517 11.2929 10.7045C11.1054 10.8921 11 11.1464 11 11.4116V16.4116C11 16.6768 11.1054 16.9312 11.2929 17.1187C11.4804 17.3063 11.7348 17.4116 12 17.4116Z" fill="#1A4D2E"/>
</svg>
