<svg width="24" height="24" viewBox="0 0 24 24" fill="none" xmlns="http://www.w3.org/2000/svg">
<path fill-rule="evenodd" clip-rule="evenodd" d="M3.33325 4C3.33325 3.46957 3.54397 2.96086 3.91904 2.58579C4.29411 2.21071 4.80282 2 5.33325 2H18.6666C19.197 2 19.7057 2.21071 20.0808 2.58579C20.4559 2.96086 20.6666 3.46957 20.6666 4V20C20.6666 20.5304 20.4559 21.0391 20.0808 21.4142C19.7057 21.7893 19.197 22 18.6666 22H5.33325C4.80282 22 4.29411 21.7893 3.91904 21.4142C3.54397 21.0391 3.33325 20.5304 3.33325 20V4ZM15.3333 8C15.3333 8.88406 14.9821 9.7319 14.3569 10.357C13.7318 10.9821 12.884 11.3333 11.9999 11.3333C11.1159 11.3333 10.268 10.9821 9.6429 10.357C9.01778 9.7319 8.66659 8.88406 8.66659 8V4.66667H7.33325V8C7.33325 9.23768 7.82492 10.4247 8.70009 11.2998C9.57526 12.175 10.7622 12.6667 11.9999 12.6667C13.2376 12.6667 14.4246 12.175 15.2998 11.2998C16.1749 10.4247 16.6666 9.23768 16.6666 8V4.66667H15.3333V8Z" fill="#1A4D2E"/>
</svg>
