<svg width="15" height="15" viewBox="0 0 15 15" fill="none" xmlns="http://www.w3.org/2000/svg">
<path d="M7.65302 6.13636V9.0409H11.7718C11.5909 9.97499 11.0482 10.7659 10.2342 11.2977L12.718 13.1864C14.1651 11.8773 15 9.9546 15 7.67052C15 7.13871 14.9513 6.6273 14.8608 6.13644L7.65302 6.13636Z" fill="#FCFCFC"/>
<path d="M3.36399 8.92752L2.8038 9.34776L0.82091 10.8614C2.0802 13.3091 4.6612 15 7.65286 15C9.71916 15 11.4517 14.3318 12.718 13.1864L10.2342 11.2977C9.55236 11.7477 8.68252 12.0205 7.65286 12.0205C5.66306 12.0205 3.97246 10.7046 3.36712 8.93185L3.36399 8.92752Z" fill="#FCFCFC"/>
<path d="M0.820914 4.13863C0.299137 5.14768 0 6.28633 0 7.49994C0 8.71355 0.299133 9.85232 0.82091 10.8614C0.82091 10.8681 3.36737 8.92489 3.36737 8.92489C3.21431 8.4749 3.12383 7.99765 3.12383 7.49986C3.12383 7.00207 3.21431 6.52483 3.36737 6.07483L0.820914 4.13863Z" fill="#FCFCFC"/>
<path d="M7.65302 2.98636C8.78014 2.98636 9.78198 3.36816 10.5821 4.10454L12.7736 1.95684C11.4448 0.743227 9.7194 0 7.65302 0C4.66136 0 2.0802 1.68408 0.820914 4.13863L3.36729 6.075C3.97254 4.30225 5.66321 2.98636 7.65302 2.98636Z" fill="#FCFCFC"/>
</svg>
