<svg width="24" height="25" viewBox="0 0 24 25" fill="none" xmlns="http://www.w3.org/2000/svg">
<mask id="mask0_919_247" style="mask-type:luminance" maskUnits="userSpaceOnUse" x="1" y="1" width="22" height="23">
<path d="M12 22.4116C13.3135 22.4132 14.6143 22.1553 15.8278 21.6527C17.0412 21.15 18.1434 20.4125 19.071 19.4826C20.0009 18.555 20.7384 17.4529 21.2411 16.2394C21.7437 15.0259 22.0016 13.7251 22 12.4116C22.0016 11.0982 21.7437 9.79734 21.2411 8.58387C20.7384 7.3704 20.0009 6.26821 19.071 5.34063C18.1434 4.41071 17.0412 3.67324 15.8278 3.17059C14.6143 2.66793 13.3135 2.41001 12 2.41163C10.6866 2.41001 9.38572 2.66793 8.17225 3.17059C6.95878 3.67324 5.85659 4.41071 4.92901 5.34063C3.99909 6.26821 3.26162 7.3704 2.75897 8.58387C2.25631 9.79734 1.99839 11.0982 2.00001 12.4116C1.99839 13.7251 2.25631 15.0259 2.75897 16.2394C3.26162 17.4529 3.99909 18.555 4.92901 19.4826C5.85659 20.4125 6.95878 21.15 8.17225 21.6527C9.38572 22.1553 10.6866 22.4132 12 22.4116Z" fill="white" stroke="white" stroke-width="2" stroke-linejoin="round"/>
<path d="M12 14.7241V12.7241C12.5933 12.7241 13.1734 12.5482 13.6667 12.2185C14.1601 11.8889 14.5446 11.4204 14.7716 10.8722C14.9987 10.324 15.0581 9.72079 14.9424 9.13885C14.8266 8.55691 14.5409 8.02236 14.1213 7.6028C13.7018 7.18324 13.1672 6.89752 12.5853 6.78177C12.0033 6.66601 11.4001 6.72542 10.8519 6.95248C10.3038 7.17955 9.83524 7.56406 9.50559 8.05741C9.17595 8.55076 9 9.13078 9 9.72412" stroke="black" stroke-width="2" stroke-linecap="round" stroke-linejoin="round"/>
<path fill-rule="evenodd" clip-rule="evenodd" d="M12 19.2241C12.3315 19.2241 12.6495 19.0924 12.8839 18.858C13.1183 18.6236 13.25 18.3056 13.25 17.9741C13.25 17.6426 13.1183 17.3247 12.8839 17.0902C12.6495 16.8558 12.3315 16.7241 12 16.7241C11.6685 16.7241 11.3505 16.8558 11.1161 17.0902C10.8817 17.3247 10.75 17.6426 10.75 17.9741C10.75 18.3056 10.8817 18.6236 11.1161 18.858C11.3505 19.0924 11.6685 19.2241 12 19.2241Z" fill="black"/>
</mask>
<g mask="url(#mask0_919_247)">
<path d="M0 0.411621H24V24.4116H0V0.411621Z" fill="#1A4D2E"/>
</g>
</svg>
