<svg width="22" height="17" viewBox="0 0 22 17" fill="none" xmlns="http://www.w3.org/2000/svg">
<path d="M3.63581 0.375977C2.74781 0.375977 1.89618 0.728734 1.26827 1.35665C0.640355 1.98456 0.287598 2.83619 0.287598 3.72419V4.39383H21.7126V3.72419C21.7126 2.83619 21.3598 1.98456 20.7319 1.35665C20.104 0.728734 19.2524 0.375977 18.3644 0.375977H3.63581ZM0.287598 13.0992V5.73312H21.7126V13.0992C21.7126 13.9872 21.3598 14.8388 20.7319 15.4667C20.104 16.0946 19.2524 16.4474 18.3644 16.4474H3.63671C2.7487 16.4474 1.89707 16.0946 1.26916 15.4667C0.641248 14.8388 0.288491 13.9872 0.288491 13.0992M14.793 10.6438C14.6154 10.6438 14.445 10.7144 14.3194 10.84C14.1939 10.9655 14.1233 11.1359 14.1233 11.3135C14.1233 11.4911 14.1939 11.6614 14.3194 11.787C14.445 11.9126 14.6154 11.9831 14.793 11.9831H17.918C18.0956 11.9831 18.2659 11.9126 18.3915 11.787C18.517 11.6614 18.5876 11.4911 18.5876 11.3135C18.5876 11.1359 18.517 10.9655 18.3915 10.84C18.2659 10.7144 18.0956 10.6438 17.918 10.6438H14.793Z" fill="#1A4D2E"/>
</svg>
