<svg width="24" height="25" viewBox="0 0 24 25" fill="none" xmlns="http://www.w3.org/2000/svg">
<path d="M4.63581 4.37598C3.74781 4.37598 2.89618 4.72873 2.26827 5.35665C1.64035 5.98456 1.2876 6.83619 1.2876 7.72419V8.39383H22.7126V7.72419C22.7126 6.83619 22.3598 5.98456 21.7319 5.35665C21.104 4.72873 20.2524 4.37598 19.3644 4.37598H4.63581ZM1.2876 17.0992V9.73312H22.7126V17.0992C22.7126 17.9872 22.3598 18.8388 21.7319 19.4667C21.104 20.0946 20.2524 20.4474 19.3644 20.4474H4.63671C3.7487 20.4474 2.89707 20.0946 2.26916 19.4667C1.64125 18.8388 1.28849 17.9872 1.28849 17.0992M15.793 14.6438C15.6154 14.6438 15.445 14.7144 15.3194 14.84C15.1939 14.9655 15.1233 15.1359 15.1233 15.3135C15.1233 15.4911 15.1939 15.6614 15.3194 15.787C15.445 15.9126 15.6154 15.9831 15.793 15.9831H18.918C19.0956 15.9831 19.2659 15.9126 19.3915 15.787C19.517 15.6614 19.5876 15.4911 19.5876 15.3135C19.5876 15.1359 19.517 14.9655 19.3915 14.84C19.2659 14.7144 19.0956 14.6438 18.918 14.6438H15.793Z" fill="#1A4D2E"/>
</svg>
