<svg width="18" height="19" viewBox="0 0 18 19" fill="none" xmlns="http://www.w3.org/2000/svg">
<path fill-rule="evenodd" clip-rule="evenodd" d="M5 4.41162C5 3.35076 5.42143 2.33334 6.17157 1.58319C6.92172 0.833048 7.93913 0.411621 9 0.411621C10.0609 0.411621 11.0783 0.833048 11.8284 1.58319C12.5786 2.33334 13 3.35076 13 4.41162C13 5.47249 12.5786 6.4899 11.8284 7.24005C11.0783 7.99019 10.0609 8.41162 9 8.41162C7.93913 8.41162 6.92172 7.99019 6.17157 7.24005C5.42143 6.4899 5 5.47249 5 4.41162ZM5 10.4116C3.67392 10.4116 2.40215 10.9384 1.46447 11.8761C0.526784 12.8138 0 14.0855 0 15.4116C0 16.2073 0.316071 16.9703 0.87868 17.5329C1.44129 18.0956 2.20435 18.4116 3 18.4116H15C15.7956 18.4116 16.5587 18.0956 17.1213 17.5329C17.6839 16.9703 18 16.2073 18 15.4116C18 14.0855 17.4732 12.8138 16.5355 11.8761C15.5979 10.9384 14.3261 10.4116 13 10.4116H5Z" fill="#1A4D2E"/>
</svg>
