<svg width="268" height="292" viewBox="0 0 268 292" fill="none" xmlns="http://www.w3.org/2000/svg">
<path d="M131.157 131.57C150.189 77.1375 197.878 30.1677 252.554 0.822433C254.148 -0.0301054 255.208 0.34974 255.733 1.96202C265.207 31.4844 269.161 61.9696 267.596 93.4176C265.714 131.55 252.449 167.278 227.802 200.602C200.9 236.962 165.544 267.197 121.734 291.308C121.55 291.411 121.341 291.47 121.126 291.479C120.911 291.488 120.698 291.447 120.505 291.36C120.313 291.273 120.148 291.142 120.025 290.981C119.902 290.819 119.826 290.632 119.803 290.435C114.877 251.873 114.981 214.291 120.115 177.689C122.288 162.191 125.872 146.648 131.157 131.57Z" fill="#7FC6A4" fill-opacity="0.66"/>
<path d="M15.4612 213.101C-2.78445 179.773 -3.85365 137.82 7.1558 101.109C7.4782 100.04 8.16519 99.7691 9.21683 100.297C28.4038 110.018 45.4807 122.516 60.4478 137.791C78.6038 156.306 90.2172 178.507 95.2881 204.395C100.816 232.645 99.3184 261.617 90.7951 291.31C90.76 291.436 90.6912 291.551 90.5949 291.646C90.4986 291.741 90.378 291.812 90.2443 291.853C90.1105 291.893 89.9678 291.903 89.8296 291.879C89.6913 291.856 89.5619 291.801 89.4532 291.719C67.8872 275.878 49.1714 258.369 33.3057 239.193C26.5876 231.074 20.5094 222.338 15.4612 213.101Z" fill="#7FC6A4" fill-opacity="0.66"/>
</svg>
